<svg xmlns="http://www.w3.org/2000/svg" viewBox="0 0 32 40" x="0px" y="0px"><title>bookmark, saved, favorite, watchlist, mark, save post</title><g data-name="Layer 2"><path d="M23,2H9A3,3,0,0,0,6,5V28a1.975,1.975,0,0,0,1.181,1.824,2.014,2.014,0,0,0,.826.18,1.978,1.978,0,0,0,1.321-.51l6.007-5.339a1,1,0,0,1,1.33,0l6.006,5.339A2,2,0,0,0,26,28V5A3,3,0,0,0,23,2Z"/></g><text x="0" y="47" fill="#000000" font-size="5px" font-weight="bold" font-family="'Helvetica Neue', Helvetica, Arial-Unicode, Arial, Sans-serif">Created by Saepul Nahwan</text><text x="0" y="52" fill="#000000" font-size="5px" font-weight="bold" font-family="'Helvetica Neue', Helvetica, Arial-Unicode, Arial, Sans-serif">from the Noun Project</text></svg>